# xmcd CD database file
#
# Track frame offsets:
#	150
#	16596
#	32330
#	47377
#	66233
#	82175
#	100367
#	121124
#	132619
#	146767
#	162639
#	177736
#
# Disc length: 2571 seconds
#
# Revision: 1
# Processed by: cddbd v1.5.1PL2 Copyright (c) Steve Scherf et al.
# Submitted via: CDex 1.70beta1
#
DISCID=a60a090c
DTITLE=Chooka Williams - Mallee Country
DYEAR=1900
DGENRE=Country
TTITLE0=Does My Ring Hurt Your Finger
TTITLE1=Rocky's Hall Of Fame
TTITLE2=Family Bible
TTITLE3=Sulva Bay
TTITLE4=A Land Downunder
TTITLE5=Memories In Prison
TTITLE6=The Workin' Man Can't Win
TTITLE7=A Class Loco
TTITLE8=Saddle Boy
TTITLE9=Australia Downunder
TTITLE10=Turned Down Akubra Hat
TTITLE11=Hattah Town
EXTD=
EXTT0=
EXTT1=
EXTT2=
EXTT3=
EXTT4=
EXTT5=
EXTT6=
EXTT7=
EXTT8=
EXTT9=
EXTT10=
EXTT11=
PLAYORDER=
